<mxfile host="app.diagrams.net" modified="2021-01-26T08:26:31.385Z" agent="5.0 (Windows NT 10.0; Win64; x64) AppleWebKit/537.36 (KHTML, like Gecko) Chrome/87.0.4280.141 Safari/537.36" etag="UW-cheMtQDoWrBld6sSu" version="14.2.7" type="github">
  <diagram name="Page-1" id="13e1069c-82ec-6db2-03f1-153e76fe0fe0">
    <mxGraphModel dx="1422" dy="762" grid="0" gridSize="10" guides="1" tooltips="1" connect="1" arrows="1" fold="1" page="1" pageScale="1" pageWidth="4681" pageHeight="3300" background="#ffffff" math="0" shadow="0">
      <root>
        <mxCell id="0" />
        <mxCell id="1" parent="0" />
        <mxCell id="7baba1c4bc27f4b0-2" value="getHome()&lt;br&gt;:AgentGameRepository" style="shape=umlLifeline;perimeter=lifelinePerimeter;whiteSpace=wrap;html=1;container=1;collapsible=0;recursiveResize=0;outlineConnect=0;rounded=1;shadow=0;comic=0;labelBackgroundColor=none;strokeWidth=1;fontFamily=Verdana;fontSize=12;align=center;" parent="1" vertex="1">
          <mxGeometry x="220" y="80" width="150" height="580" as="geometry" />
        </mxCell>
        <mxCell id="7baba1c4bc27f4b0-10" value="" style="html=1;points=[];perimeter=orthogonalPerimeter;rounded=0;shadow=0;comic=0;labelBackgroundColor=none;strokeWidth=1;fontFamily=Verdana;fontSize=12;align=center;" parent="7baba1c4bc27f4b0-2" vertex="1">
          <mxGeometry x="70" y="100" width="10" height="70" as="geometry" />
        </mxCell>
        <mxCell id="7baba1c4bc27f4b0-7" value=":GameListFragment" style="shape=umlLifeline;perimeter=lifelinePerimeter;whiteSpace=wrap;html=1;container=1;collapsible=0;recursiveResize=0;outlineConnect=0;rounded=1;shadow=0;comic=0;labelBackgroundColor=none;strokeWidth=1;fontFamily=Verdana;fontSize=12;align=center;" parent="1" vertex="1">
          <mxGeometry x="760" y="80" width="140" height="580" as="geometry" />
        </mxCell>
        <mxCell id="0LGsHGUQho07r74BYmYu-15" value="" style="html=1;points=[];perimeter=orthogonalPerimeter;rounded=0;shadow=0;comic=0;labelBackgroundColor=none;strokeWidth=1;fontFamily=Verdana;fontSize=12;align=center;" vertex="1" parent="7baba1c4bc27f4b0-7">
          <mxGeometry x="66" y="280" width="10" height="150" as="geometry" />
        </mxCell>
        <mxCell id="7baba1c4bc27f4b0-8" value=":用户" style="shape=umlLifeline;perimeter=lifelinePerimeter;whiteSpace=wrap;html=1;container=1;collapsible=0;recursiveResize=0;outlineConnect=0;rounded=1;shadow=0;comic=0;labelBackgroundColor=none;strokeWidth=1;fontFamily=Verdana;fontSize=12;align=center;" parent="1" vertex="1">
          <mxGeometry x="100" y="80" width="100" height="580" as="geometry" />
        </mxCell>
        <mxCell id="7baba1c4bc27f4b0-9" value="" style="html=1;points=[];perimeter=orthogonalPerimeter;rounded=0;shadow=0;comic=0;labelBackgroundColor=none;strokeWidth=1;fontFamily=Verdana;fontSize=12;align=center;" parent="7baba1c4bc27f4b0-8" vertex="1">
          <mxGeometry x="45" y="100" width="10" height="460" as="geometry" />
        </mxCell>
        <mxCell id="7baba1c4bc27f4b0-11" value="打开 App" style="html=1;verticalAlign=bottom;endArrow=block;entryX=0;entryY=0;labelBackgroundColor=none;fontFamily=Verdana;fontSize=12;edgeStyle=elbowEdgeStyle;elbow=vertical;" parent="1" source="7baba1c4bc27f4b0-9" target="7baba1c4bc27f4b0-10" edge="1">
          <mxGeometry relative="1" as="geometry">
            <mxPoint x="220" y="190" as="sourcePoint" />
            <Array as="points">
              <mxPoint x="190" y="180" />
              <mxPoint x="180" y="190" />
            </Array>
          </mxGeometry>
        </mxCell>
        <mxCell id="7baba1c4bc27f4b0-40" value="发现好游戏用户" style="shape=note;whiteSpace=wrap;html=1;size=14;verticalAlign=top;align=left;spacingTop=-6;rounded=0;shadow=0;comic=0;labelBackgroundColor=none;strokeWidth=1;fontFamily=Verdana;fontSize=12" parent="1" vertex="1">
          <mxGeometry x="100" y="30" width="100" height="35" as="geometry" />
        </mxCell>
        <mxCell id="7baba1c4bc27f4b0-41" value="Repository:拉&lt;br&gt;取接口信息" style="shape=note;whiteSpace=wrap;html=1;size=14;verticalAlign=top;align=left;spacingTop=-6;rounded=0;shadow=0;comic=0;labelBackgroundColor=none;strokeWidth=1;fontFamily=Verdana;fontSize=12" parent="1" vertex="1">
          <mxGeometry x="240" y="30" width="100" height="35" as="geometry" />
        </mxCell>
        <mxCell id="7baba1c4bc27f4b0-46" value="每一个 Tab 对应一个 GameListFragment，展示合辑信息" style="shape=note;whiteSpace=wrap;html=1;size=14;verticalAlign=top;align=left;spacingTop=-6;rounded=0;shadow=0;comic=0;labelBackgroundColor=none;strokeWidth=1;fontFamily=Verdana;fontSize=12" parent="1" vertex="1">
          <mxGeometry x="760" y="20" width="150" height="45" as="geometry" />
        </mxCell>
        <mxCell id="0LGsHGUQho07r74BYmYu-1" value="获取首页配置信息&lt;br&gt;" style="html=1;verticalAlign=bottom;endArrow=block;labelBackgroundColor=none;fontFamily=Verdana;fontSize=12;elbow=vertical;edgeStyle=orthogonalEdgeStyle;curved=1;entryX=1;entryY=0.286;entryPerimeter=0;exitX=1.038;exitY=0.345;exitPerimeter=0;" edge="1" parent="1">
          <mxGeometry relative="1" as="geometry">
            <mxPoint x="300.0000000000001" y="192.07999999999993" as="sourcePoint" />
            <mxPoint x="304.62" y="230" as="targetPoint" />
            <Array as="points">
              <mxPoint x="354.62" y="191.98000000000002" />
              <mxPoint x="354.62" y="229.98000000000002" />
            </Array>
          </mxGeometry>
        </mxCell>
        <mxCell id="0LGsHGUQho07r74BYmYu-2" value=":AppHomeFragment" style="shape=umlLifeline;perimeter=lifelinePerimeter;whiteSpace=wrap;html=1;container=1;collapsible=0;recursiveResize=0;outlineConnect=0;rounded=1;shadow=0;comic=0;labelBackgroundColor=none;strokeWidth=1;fontFamily=Verdana;fontSize=12;align=center;" vertex="1" parent="1">
          <mxGeometry x="410" y="80" width="130" height="580" as="geometry" />
        </mxCell>
        <mxCell id="0LGsHGUQho07r74BYmYu-3" value="" style="html=1;points=[];perimeter=orthogonalPerimeter;rounded=0;shadow=0;comic=0;labelBackgroundColor=none;strokeWidth=1;fontFamily=Verdana;fontSize=12;align=center;" vertex="1" parent="0LGsHGUQho07r74BYmYu-2">
          <mxGeometry x="60" y="170" width="10" height="260" as="geometry" />
        </mxCell>
        <mxCell id="0LGsHGUQho07r74BYmYu-28" value="" style="html=1;points=[];perimeter=orthogonalPerimeter;" vertex="1" parent="0LGsHGUQho07r74BYmYu-2">
          <mxGeometry x="60" y="480" width="10" height="70" as="geometry" />
        </mxCell>
        <mxCell id="0LGsHGUQho07r74BYmYu-4" value="主页展示页面" style="shape=note;whiteSpace=wrap;html=1;size=14;verticalAlign=top;align=left;spacingTop=-6;rounded=0;shadow=0;comic=0;labelBackgroundColor=none;strokeWidth=1;fontFamily=Verdana;fontSize=12" vertex="1" parent="1">
          <mxGeometry x="410" y="30" width="100" height="35" as="geometry" />
        </mxCell>
        <mxCell id="0LGsHGUQho07r74BYmYu-6" value="渲染轮播图信息" style="html=1;verticalAlign=bottom;endArrow=block;labelBackgroundColor=none;fontFamily=Verdana;fontSize=12;elbow=vertical;edgeStyle=orthogonalEdgeStyle;curved=1;entryX=1;entryY=0.286;entryPerimeter=0;exitX=1.038;exitY=0.345;exitPerimeter=0;" edge="1" parent="1">
          <mxGeometry relative="1" as="geometry">
            <mxPoint x="480.0000000000001" y="262.0799999999999" as="sourcePoint" />
            <mxPoint x="484.62" y="300" as="targetPoint" />
            <Array as="points">
              <mxPoint x="534.62" y="261.98" />
              <mxPoint x="534.62" y="299.98" />
            </Array>
          </mxGeometry>
        </mxCell>
        <mxCell id="0LGsHGUQho07r74BYmYu-8" value="MyPageAdapter&lt;br&gt;:AppHomeFragment" style="shape=umlLifeline;perimeter=lifelinePerimeter;whiteSpace=wrap;html=1;container=1;collapsible=0;recursiveResize=0;outlineConnect=0;rounded=1;shadow=0;comic=0;labelBackgroundColor=none;strokeWidth=1;fontFamily=Verdana;fontSize=12;align=center;" vertex="1" parent="1">
          <mxGeometry x="600" y="80" width="120" height="580" as="geometry" />
        </mxCell>
        <mxCell id="0LGsHGUQho07r74BYmYu-9" value="" style="html=1;points=[];perimeter=orthogonalPerimeter;rounded=0;shadow=0;comic=0;labelBackgroundColor=none;strokeWidth=1;fontFamily=Verdana;fontSize=12;align=center;" vertex="1" parent="0LGsHGUQho07r74BYmYu-8">
          <mxGeometry x="55" y="250" width="10" height="180" as="geometry" />
        </mxCell>
        <mxCell id="0LGsHGUQho07r74BYmYu-10" value="主页展示页面 Adapter，渲染 Tab 列表类型" style="shape=note;whiteSpace=wrap;html=1;size=10;verticalAlign=top;align=left;spacingTop=-6;rounded=0;shadow=0;comic=0;labelBackgroundColor=none;strokeWidth=1;fontFamily=Verdana;fontSize=12" vertex="1" parent="1">
          <mxGeometry x="600" y="20" width="120" height="45" as="geometry" />
        </mxCell>
        <mxCell id="0LGsHGUQho07r74BYmYu-13" value="" style="endArrow=classic;html=1;exitX=1;exitY=0.395;exitDx=0;exitDy=0;exitPerimeter=0;" edge="1" parent="1">
          <mxGeometry width="50" height="50" relative="1" as="geometry">
            <mxPoint x="480" y="328.79999999999995" as="sourcePoint" />
            <mxPoint x="659.5" y="328.79999999999995" as="targetPoint" />
          </mxGeometry>
        </mxCell>
        <mxCell id="0LGsHGUQho07r74BYmYu-14" value="Tab 信息" style="text;html=1;align=center;verticalAlign=middle;resizable=0;points=[];autosize=1;" vertex="1" parent="1">
          <mxGeometry x="542" y="311" width="57" height="18" as="geometry" />
        </mxCell>
        <mxCell id="0LGsHGUQho07r74BYmYu-16" value="合辑 feedId" style="html=1;verticalAlign=bottom;endArrow=block;labelBackgroundColor=none;fontFamily=Verdana;fontSize=12;edgeStyle=elbowEdgeStyle;elbow=vertical;" edge="1" parent="1">
          <mxGeometry relative="1" as="geometry">
            <mxPoint x="663" y="360" as="sourcePoint" />
            <Array as="points" />
            <mxPoint x="823" y="360" as="targetPoint" />
          </mxGeometry>
        </mxCell>
        <mxCell id="0LGsHGUQho07r74BYmYu-19" value="页面信息" style="html=1;verticalAlign=bottom;endArrow=open;dashed=1;endSize=8;entryX=0.2;entryY=-0.015;entryDx=0;entryDy=0;entryPerimeter=0;" edge="1" parent="1">
          <mxGeometry relative="1" as="geometry">
            <mxPoint x="300" y="249" as="sourcePoint" />
            <mxPoint x="472" y="249" as="targetPoint" />
          </mxGeometry>
        </mxCell>
        <mxCell id="0LGsHGUQho07r74BYmYu-20" value="合辑 feedId" style="html=1;verticalAlign=bottom;endArrow=block;exitX=0.1;exitY=0.2;exitDx=0;exitDy=0;exitPerimeter=0;" edge="1" parent="1" source="0LGsHGUQho07r74BYmYu-15">
          <mxGeometry width="80" relative="1" as="geometry">
            <mxPoint x="350" y="530" as="sourcePoint" />
            <mxPoint x="300" y="390" as="targetPoint" />
          </mxGeometry>
        </mxCell>
        <mxCell id="0LGsHGUQho07r74BYmYu-21" value="" style="html=1;points=[];perimeter=orthogonalPerimeter;" vertex="1" parent="1">
          <mxGeometry x="289" y="390" width="10" height="60" as="geometry" />
        </mxCell>
        <mxCell id="0LGsHGUQho07r74BYmYu-23" value="获取 Tab 合辑信息&lt;br&gt;" style="html=1;verticalAlign=bottom;endArrow=block;labelBackgroundColor=none;fontFamily=Verdana;fontSize=12;elbow=vertical;edgeStyle=orthogonalEdgeStyle;curved=1;entryX=1;entryY=0.286;entryPerimeter=0;exitX=1.038;exitY=0.345;exitPerimeter=0;" edge="1" parent="1">
          <mxGeometry relative="1" as="geometry">
            <mxPoint x="299" y="399.9999999999999" as="sourcePoint" />
            <mxPoint x="303.6199999999999" y="437.91999999999996" as="targetPoint" />
            <Array as="points">
              <mxPoint x="353.62" y="399.9" />
              <mxPoint x="353.62" y="437.9" />
            </Array>
          </mxGeometry>
        </mxCell>
        <mxCell id="0LGsHGUQho07r74BYmYu-24" value="返回合辑信息" style="html=1;verticalAlign=bottom;endArrow=open;dashed=1;endSize=8;exitX=0.9;exitY=0.738;exitDx=0;exitDy=0;exitPerimeter=0;" edge="1" parent="1">
          <mxGeometry relative="1" as="geometry">
            <mxPoint x="298" y="450.28" as="sourcePoint" />
            <mxPoint x="829.5" y="450.28" as="targetPoint" />
          </mxGeometry>
        </mxCell>
        <mxCell id="0LGsHGUQho07r74BYmYu-25" value="渲染合辑列表" style="html=1;verticalAlign=bottom;endArrow=block;labelBackgroundColor=none;fontFamily=Verdana;fontSize=12;elbow=vertical;edgeStyle=orthogonalEdgeStyle;curved=1;entryX=1;entryY=0.286;entryPerimeter=0;exitX=1.038;exitY=0.345;exitPerimeter=0;" edge="1" parent="1">
          <mxGeometry relative="1" as="geometry">
            <mxPoint x="830" y="459.9999999999999" as="sourcePoint" />
            <mxPoint x="834.6199999999999" y="497.91999999999996" as="targetPoint" />
            <Array as="points">
              <mxPoint x="884.62" y="459.9" />
              <mxPoint x="884.62" y="497.9" />
            </Array>
          </mxGeometry>
        </mxCell>
        <mxCell id="0LGsHGUQho07r74BYmYu-26" value="生成合辑列表页面" style="html=1;verticalAlign=bottom;endArrow=open;dashed=1;endSize=8;" edge="1" parent="1" target="0LGsHGUQho07r74BYmYu-8">
          <mxGeometry relative="1" as="geometry">
            <mxPoint x="830" y="510" as="sourcePoint" />
            <mxPoint x="750" y="510" as="targetPoint" />
          </mxGeometry>
        </mxCell>
        <mxCell id="0LGsHGUQho07r74BYmYu-27" value="生成多个 Tab 列表" style="html=1;verticalAlign=bottom;endArrow=open;dashed=1;endSize=8;" edge="1" parent="1" target="0LGsHGUQho07r74BYmYu-2">
          <mxGeometry relative="1" as="geometry">
            <mxPoint x="660" y="510" as="sourcePoint" />
            <mxPoint x="580" y="510" as="targetPoint" />
          </mxGeometry>
        </mxCell>
        <mxCell id="0LGsHGUQho07r74BYmYu-29" value="点击页面元素" style="html=1;verticalAlign=bottom;endArrow=block;" edge="1" parent="1">
          <mxGeometry width="80" relative="1" as="geometry">
            <mxPoint x="150" y="562" as="sourcePoint" />
            <mxPoint x="474.5" y="562" as="targetPoint" />
          </mxGeometry>
        </mxCell>
        <mxCell id="0LGsHGUQho07r74BYmYu-30" value="：落地页" style="shape=umlLifeline;perimeter=lifelinePerimeter;whiteSpace=wrap;html=1;container=1;collapsible=0;recursiveResize=0;outlineConnect=0;rounded=1;shadow=0;comic=0;labelBackgroundColor=none;strokeWidth=1;fontFamily=Verdana;fontSize=12;align=center;" vertex="1" parent="1">
          <mxGeometry x="960" y="80" width="140" height="580" as="geometry" />
        </mxCell>
        <mxCell id="0LGsHGUQho07r74BYmYu-32" value="落地页面：包括 活动页，抽奖页，App 详情页，文章详情页，榜单页等" style="shape=note;whiteSpace=wrap;html=1;size=14;verticalAlign=top;align=left;spacingTop=-6;rounded=0;shadow=0;comic=0;labelBackgroundColor=none;strokeWidth=1;fontFamily=Verdana;fontSize=12" vertex="1" parent="1">
          <mxGeometry x="960" y="20" width="150" height="45" as="geometry" />
        </mxCell>
        <mxCell id="0LGsHGUQho07r74BYmYu-33" value="判断元素绑定的 jumpType&lt;br&gt;&amp;nbsp;分发到不同页面" style="html=1;verticalAlign=bottom;endArrow=block;labelBackgroundColor=none;fontFamily=Verdana;fontSize=12;elbow=vertical;edgeStyle=orthogonalEdgeStyle;curved=1;entryX=1;entryY=0.286;entryPerimeter=0;exitX=1.038;exitY=0.345;exitPerimeter=0;" edge="1" parent="1">
          <mxGeometry relative="1" as="geometry">
            <mxPoint x="480" y="580" as="sourcePoint" />
            <mxPoint x="484.6199999999999" y="617.9200000000001" as="targetPoint" />
            <Array as="points">
              <mxPoint x="534.62" y="579.9000000000001" />
              <mxPoint x="534.62" y="617.9000000000001" />
            </Array>
          </mxGeometry>
        </mxCell>
        <mxCell id="0LGsHGUQho07r74BYmYu-31" value="" style="html=1;points=[];perimeter=orthogonalPerimeter;rounded=0;shadow=0;comic=0;labelBackgroundColor=none;strokeWidth=1;fontFamily=Verdana;fontSize=12;align=center;" vertex="1" parent="1">
          <mxGeometry x="1025" y="630" width="10" height="10" as="geometry" />
        </mxCell>
        <mxCell id="0LGsHGUQho07r74BYmYu-34" value="跳转参数" style="html=1;verticalAlign=bottom;endArrow=block;" edge="1" parent="1" target="0LGsHGUQho07r74BYmYu-30">
          <mxGeometry width="80" relative="1" as="geometry">
            <mxPoint x="480" y="630" as="sourcePoint" />
            <mxPoint x="560" y="630" as="targetPoint" />
          </mxGeometry>
        </mxCell>
      </root>
    </mxGraphModel>
  </diagram>
</mxfile>
